<svg  width="28" height="28" xmlns="http://www.w3.org/2000/svg" viewBox="0 0 30 30"><path fill="#8d8dd8" d="M22.5,1.5h-15c-3.3,0-6,2.7-6,6v15c0,3.3,2.7,6,6,6h15c3.3,0,6-2.7,6-6v-15 C28.5,4.2,25.8,1.5,22.5,1.5z"/><path fill="#8585cc" d="M27.9,5c-0.9-2.1-3-3.5-5.4-3.5h-4.1C21.8,2.1,25,3.3,27.9,5z"/><path fill="#bd82f4" d="M1.5,7.5v15c0,3.3,2.7,6,6,6h15c3.3,0,6-2.7,6-6V8.9C24.1,5.8,18.8,4,13,4C8.8,4,4.8,5,1.3,6.7 C1.4,6.9,1.5,7.2,1.5,7.5z"/><path fill="#ed73f4" d="M1.5,22.5c0,3.3,2.7,6,6,6h15c3.3,0,6-2.7,6-6v-9.8C24.3,9.1,18.9,7,13,7C8.8,7,4.9,8.1,1.5,9.9V22.5 z"/><path fill="#f97dcd" d="M1.5,22.5c0,3.3,2.7,6,6,6h15c3.3,0,6-2.7,6-6v-5.6C24.7,12.7,19.1,10,13,10c-4.2,0-8.2,1.3-11.5,3.4 V22.5z"/><path fill="#fc9c95" d="M1.5,22.5c0,3.3,2.7,6,6,6h15c3.3,0,6-2.7,6-6v-0.6C25.4,16.6,19.6,13,13,13 c-4.4,0-8.4,1.6-11.5,4.2V22.5z"/><path fill="#ffac99" d="M1.5,22.5c0,3.3,2.7,6,6,6h15c1.9,0,3.6-0.9,4.7-2.3C25.2,20.3,19.6,16,13,16 c-4.6,0-8.7,2.1-11.5,5.4V22.5z"/><path fill="#ffc49c" d="M7.5,28.5h15c0.8,0,1.5-0.1,2.1-0.4c-1.3-5.2-6-9.1-11.6-9.1c-4.7,0-8.7,2.7-10.7,6.5 C3.4,27.3,5.3,28.5,7.5,28.5z"/><path fill="#ffde8d" d="M7.5,28.5h14.1C20.6,24.7,17.1,22,13,22c-3.8,0-7.1,2.4-8.4,5.8C5.5,28.2,6.5,28.5,7.5,28.5z"/><path fill="#fff69f" d="M18.4,28.5c-0.9-2.1-3-3.5-5.4-3.5s-4.5,1.4-5.4,3.5H18.4z"/><path fill="#8b75a1" d="M23,2c2.8,0,5,2.2,5,5v16c0,2.8-2.2,5-5,5H7c-2.8,0-5-2.2-5-5V7c0-2.8,2.2-5,5-5H23 M23,1H7 C3.7,1,1,3.7,1,7v16c0,3.3,2.7,6,6,6h16c3.3,0,6-2.7,6-6V7C29,3.7,26.3,1,23,1L23,1z"/><path fill="#fff" d="M19,25h-8c-3.3,0-6-2.7-6-6v-8c0-3.3,2.7-6,6-6h8c3.3,0,6,2.7,6,6v8C25,22.3,22.3,25,19,25z M11,7 c-2.2,0-4,1.8-4,4v8c0,2.2,1.8,4,4,4h8c2.2,0,4-1.8,4-4v-8c0-2.2-1.8-4-4-4H11z"/><path fill="#fff" d="M15 20c-2.8 0-5-2.2-5-5s2.2-5 5-5 5 2.2 5 5S17.8 20 15 20zM15 12c-1.7 0-3 1.3-3 3s1.3 3 3 3 3-1.3 3-3S16.7 12 15 12zM20 9A1 1 0 1 0 20 11 1 1 0 1 0 20 9z"/></svg>